#!OML:ASF E:\I on waltz\AllaLogoMonkeySwing\Project 1\Capture day 1\Session 1\Subject1.ASF
:FULLY-SPECIFIED
:DEGREES
431
root 1.42809 17.7746 19.3976 0.536851 178.702 0.430796
lowerback 4.48114 -3.12053 -6.44022
upperback -1.24211 -4.41348 3.20123
thorax -3.06599 -2.03627 7.25768
lowerneck -1.01468 -14.007 -13.8923
upperneck 11.7032 -19.3587 12.2944
head 6.28092 -9.34514 4.56593
rclavicle -1.30359e-014 -1.47101e-014
rhumerus -32.1363 -8.74192 -83.8955
rradius 33.5138
rwrist -3.08695
rhand -6.50629 -37.2679
rfingers 7.12502
rthumb 19.3456 -66.3256
lclavicle -1.30359e-014 -1.47101e-014
lhumerus -30.6251 18.9657 88.814
lradius 33.229
lwrist -5.64535
lhand -9.1147 -16.9965
lfingers 7.12502
lthumb 16.836 12.2937
rfemur -2.70309 3.34095 18.9409
rtibia 17.2704
rfoot -14.5237 -4.75624
rtoes 10.1823
lfemur 4.77103 0.677704 -18.3259
ltibia 8.02815
lfoot -14.0914 1.20346
ltoes -29.002
432
root 1.43056 17.7725 19.3984 0.556442 178.809 0.376532
lowerback 4.62269 -3.14987 -6.54799
upperback -1.2898 -4.46935 3.1935
thorax -3.1791 -2.05586 7.32639
lowerneck -0.830395 -14.2706 -14.1899
upperneck 11.9831 -19.8043 12.8826
head 6.49286 -9.52918 4.7351
rclavicle 5.18595e-014 0
rhumerus -32.0008 -8.32722 -83.8541
rradius 33.7754
rwrist -3.56037
rhand -6.69669 -37.1413
rfingers 7.12502
rthumb 19.1625 -66.2172
lclavicle 5.18595e-014 0
lhumerus -30.7435 19.7663 88.2327
lradius 33.0351
lwrist -5.63057
lhand -9.32745 -16.8344
lfingers 7.12502
lthumb 16.6312 12.4731
rfemur -2.82411 3.35153 18.891
rtibia 17.4807
rfoot -14.6558 -4.86766
rtoes 10.0973
lfemur 4.70828 0.764682 -18.3684
ltibia 8.07121
lfoot -14.185 1.15151
ltoes -29.3285
433
root 1.43197 17.7695 19.4 0.582253 178.896 0.305351
lowerback 4.75286 -3.16123 -6.6766
upperback -1.31281 -4.50297 3.17131
thorax -3.2634 -2.0662 7.38874
lowerneck -0.709 -14.5871 -14.4351
upperneck 12.4387 -20.3326 13.491
head 6.7859 -9.73631 4.88392
rclavicle -2.2663e-014 2.42517e-014
rhumerus -31.7836 -8.15046 -83.7342
rradius 33.8417
rwrist -3.80234
rhand -6.85631 -36.9604
rfingers 7.12502
rthumb 19.009 -66.0515
lclavicle -2.2663e-014 2.42517e-014
lhumerus -30.8159 20.5384 87.6782
lradius 32.7521
lwrist -5.53194
lhand -9.63619 -16.8704
lfingers 7.12502
lthumb 16.334 12.4618
rfemur -2.93949 3.40012 18.8183
rtibia 17.6374
rfoot -14.7279 -4.96997
rtoes 10.198
lfemur 4.64126 0.750973 -18.4674
ltibia 8.10389
lfoot -14.2253 1.18956
ltoes -29.8035
434
root 1.43298 17.7671 19.4025 0.640801 178.939 0.214343
lowerback 4.84864 -3.16386 -6.80958
upperback -1.32715 -4.52545 3.11627
thorax -3.32344 -2.07284 7.41513
lowerneck -0.668657 -14.9494 -14.5368
upperneck 13.0851 -20.923 14.001
head 7.14378 -9.95564 4.96451
rclavicle 2.67893e-015 2.38542e-015
rhumerus -31.5442 -8.0606 -83.6112
rradius 33.8156
rwrist -3.92124
rhand -6.99119 -36.8806
rfingers 7.12502
rthumb 18.8793 -65.9844
lclavicle 2.67893e-015 2.38542e-015
lhumerus -31.0217 21.164 87.0914
lradius 32.6005
lwrist -5.29374
lhand -9.91354 -16.8779
lfingers 7.12502
lthumb 16.0669 12.476
rfemur -3.08132 3.4795 18.7216
rtibia 17.765
rfoot -14.7192 -5.0707
rtoes 10.5282
lfemur 4.54001 0.626557 -18.615
ltibia 8.13717
lfoot -14.185 1.27232
ltoes -29.834
435
root 1.43329 17.7656 19.405 0.722563 178.943 0.144962
lowerback 4.91669 -3.18089 -6.93653
upperback -1.34428 -4.56455 3.07413
thorax -3.36717 -2.08824 7.45064
lowerneck -0.611132 -15.3092 -14.6189
upperneck 13.7981 -21.5187 14.5021
head 7.52555 -10.1678 5.03881
rclavicle 1.57102e-014 -2.5842e-014
rhumerus -31.2935 -7.97779 -83.4646
rradius 33.6845
rwrist -3.88398
rhand -7.0339 -36.8522
rfingers 7.12502
rthumb 18.8382 -65.96
lclavicle 1.57102e-014 -2.5842e-014
lhumerus -31.4281 21.7646 86.4368
lradius 32.564
lwrist -4.98363
lhand -10.0611 -16.9896
lfingers 7.12502
lthumb 15.9248 12.3757
rfemur -3.24592 3.47773 18.6347
rtibia 17.8892
rfoot -14.7087 -5.08829
rtoes 10.6492
lfemur 4.42355 0.585704 -18.7184
ltibia 8.17321
lfoot -14.1652 1.28923
ltoes -29.6143
436
root 1.43223 17.7653 19.4065 0.788407 178.934 0.140036
lowerback 4.98883 -3.2387 -7.02826
upperback -1.34022 -4.65231 3.08938
thorax -3.38 -2.12972 7.52889
lowerneck -0.620673 -15.6011 -14.7877
upperneck 14.5725 -22.0339 15.0848
head 7.95527 -10.3281 5.15709
rclavicle -1.67569e-014 7.95139e-015
rhumerus -30.9754 -7.95372 -83.2625
rradius 33.4472
rwrist -3.65039
rhand -7.03446 -36.8836
rfingers 7.12502
rthumb 18.8377 -65.9914
lclavicle -1.67569e-014 7.95139e-015
lhumerus -31.9234 22.5278 85.7829
lradius 32.5029
lwrist -4.84369
lhand -10.4642 -17.0905
lfingers 7.12502
lthumb 15.5366 12.3054
rfemur -3.35606 3.44166 18.6157
rtibia 17.9482
rfoot -14.7959 -5.02195
rtoes 10.4878
lfemur 4.35819 0.618899 -18.7381
ltibia 8.17253
lfoot -14.1669 1.29786
ltoes -29.596
437
root 1.43077 17.7656 19.4081 0.829295 178.888 0.237165
lowerback 5.09401 -3.31172 -7.02585
upperback -1.34456 -4.75227 3.16307
thorax -3.41992 -2.17628 7.61957
lowerneck -0.870108 -15.8583 -14.9353
upperneck 15.5229 -22.4794 15.4884
head 8.45922 -10.4418 5.2071
rclavicle 3.72349e-014 1.23246e-014
rhumerus -30.6788 -7.88325 -83.0102
rradius 33.1638
rwrist -3.41372
rhand -7.15051 -37.0433
rfingers 7.12502
rthumb 18.7261 -66.162
lclavicle 3.72349e-014 1.23246e-014
lhumerus -32.5814 23.3285 85.1605
lradius 32.479
lwrist -4.81061
lhand -11.1085 -16.925
lfingers 7.12502
lthumb 14.9159 12.518
rfemur -3.41064 3.47668 18.7289
rtibia 17.9501
rfoot -14.8775 -4.95851
rtoes 10.5465
lfemur 4.34274 0.62827 -18.6389
ltibia 8.14185
lfoot -14.1327 1.38981
ltoes -29.691
438
root 1.42935 17.7652 19.409 0.893907 178.756 0.253271
lowerback 5.18658 -3.40442 -7.14724
upperback -1.38938 -4.88553 3.27109
thorax -3.47627 -2.23426 7.82066
lowerneck -0.681727 -16.0457 -15.1198
upperneck 16.232 -22.8348 15.8599
head 8.79926 -10.5468 5.30676
rclavicle 6.56642e-014 2.54444e-014
rhumerus -30.4122 -7.75456 -82.6781
rradius 32.7993
rwrist -3.06088
rhand -7.21227 -37.0626
rfingers 7.12502
rthumb 18.6667 -66.187
lclavicle 6.56642e-014 2.54444e-014
lhumerus -33.439 24.1176 84.5281
lradius 32.5007
lwrist -4.68832
lhand -11.6293 -16.774
lfingers 7.12502
lthumb 14.4142 12.7055
rfemur -3.50431 3.54298 18.7369
rtibia 17.9638
rfoot -14.9074 -4.8455
rtoes 10.7959
lfemur 4.29763 0.654415 -18.6423
ltibia 8.121
lfoot -14.0983 1.53109
ltoes -29.7241
439
root 1.42596 17.766 19.4069 0.971695 178.504 0.136265
lowerback 5.2242 -3.52673 -7.44861
upperback -1.41269 -5.06669 3.4079
thorax -3.45174 -2.31711 8.15231
lowerneck -0.490901 -16.1647 -15.3685
upperneck 16.9969 -23.0831 16.1335
head 9.14104 -10.6103 5.40388
rclavicle -1.15854e-014 7.55382e-015
rhumerus -30.0613 -7.59874 -82.31
rradius 32.3887
rwrist -2.62928
rhand -7.22882 -37.032
rfingers 7.12502
rthumb 18.6507 -66.1579
lclavicle -1.15854e-014 7.55382e-015
lhumerus -34.3131 25.0728 83.8686
lradius 32.4614
lwrist -4.56224
lhand -11.9387 -16.8654
lfingers 7.12502
lthumb 14.1161 12.6351
rfemur -3.60549 3.61956 18.5668
rtibia 17.9643
rfoot -14.9474 -4.59141
rtoes 11.0468
lfemur 4.24946 0.765076 -18.8192
ltibia 8.10461
lfoot -14.0813 1.70809
ltoes -29.8604
440
root 1.42061 17.7694 19.4012 0.996008 178.097 0.151195
lowerback 5.24834 -3.61449 -7.5988
upperback -1.37772 -5.1862 3.57344
thorax -3.37759 -2.37622 8.42142
lowerneck -0.461139 -16.2729 -15.5109
upperneck 17.8397 -23.2889 16.231
head 9.49922 -10.6487 5.42509
rclavicle 3.78312e-015 -1.23246e-014
rhumerus -29.7001 -7.5848 -81.9488
rradius 32.0647
rwrist -2.33906
rhand -7.34063 -36.968
rfingers 7.12502
rthumb 18.5432 -66.1042
lclavicle 3.78312e-015 -1.23246e-014
lhumerus -35.1677 25.991 83.22
lradius 32.403
lwrist -4.44979
lhand -12.1619 -16.8553
lfingers 7.12502
lthumb 13.901 12.6601
rfemur -3.6448 3.81434 18.5655
rtibia 17.9687
rfoot -15.019 -4.26109
rtoes 11.4725
lfemur 4.29222 0.950738 -18.8364
ltibia 8.09281
lfoot -14.0455 1.9399
ltoes -29.9339
441
root 1.41461 17.7718 19.3942 1.01965 177.618 0.240749
lowerback 5.26681 -3.66226 -7.59829
upperback -1.32456 -5.2417 3.70649
thorax -3.30842 -2.40711 8.56519
lowerneck -0.546472 -16.412 -15.4885
upperneck 18.6755 -23.5174 16.2055
head 9.84636 -10.6899 5.37088
rclavicle -6.89534e-016 -8.74653e-015
rhumerus -29.4076 -7.8833 -81.5866
rradius 31.8752
rwrist -2.25913
rhand -7.44245 -37.1025
rfingers 7.12502
rthumb 18.4452 -66.248
lclavicle -6.89534e-016 -8.74653e-015
lhumerus -36.091 26.6272 82.6135
lradius 32.3554
lwrist -4.33011
lhand -12.4118 -16.5883
lfingers 7.12502
lthumb 13.6602 12.9434
rfemur -3.71308 4.09238 18.6529
rtibia 18.0309
rfoot -15.1184 -3.92666
rtoes 11.8722
lfemur 4.3478 1.11504 -18.7655
ltibia 8.09822
lfoot -13.9962 2.20594
ltoes -29.587
442
root 1.40657 17.7701 19.3888 1.13704 177.091 0.253556
lowerback 5.22738 -3.6961 -7.58811
upperback -1.27284 -5.27667 3.79956
thorax -3.21663 -2.42996 8.65446
lowerneck -0.799381 -16.5766 -15.4515
upperneck 19.5415 -23.776 16.1584
head 10.2408 -10.7346 5.2877
rclavicle 6.77856e-014 -7.15625e-015
rhumerus -29.1074 -8.3843 -81.1911
rradius 31.8085
rwrist -2.52119
rhand -7.2901 -37.3372
rfingers 7.12502
rthumb 18.5918 -66.4688
lclavicle 6.77856e-014 -7.15625e-015
lhumerus -36.9967 27.1726 82.0267
lradius 32.2001
lwrist -4.30344
lhand -12.6134 -16.5264
lfingers 7.12502
lthumb 13.4658 13.0183
rfemur -3.95559 4.38731 18.6234
rtibia 18.1799
rfoot -15.2387 -3.5931
rtoes 11.9137
lfemur 4.28466 1.29119 -18.7948
ltibia 8.12084
lfoot -13.9742 2.55567
ltoes -29.1858
443
root 1.39497 17.7672 19.385 1.24271 176.423 0.239528
lowerback 5.24684 -3.70103 -7.58599
upperback -1.20492 -5.27611 3.90703
thorax -3.14607 -2.43391 8.76683
lowerneck -1.0413 -16.7327 -15.4804
upperneck 20.3127 -24.0279 16.1631
head 10.6205 -10.7829 5.23207
rclavicle 4.62671e-014 9.54166e-015
rhumerus -28.8085 -8.90488 -80.7681
rradius 31.808
rwrist -2.93618
rhand -7.05814 -36.658
rfingers 7.12502
rthumb 18.8149 -65.7681
lclavicle 4.62671e-014 9.54166e-015
lhumerus -37.8854 27.8094 81.4424
lradius 31.9886
lwrist -4.44593
lhand -12.6024 -16.4823
lfingers 7.12502
lthumb 13.4764 13.0617
rfemur -4.25489 4.74175 18.5605
rtibia 18.3954
rfoot -15.3474 -3.22547
rtoes 11.862
lfemur 4.24577 1.57553 -18.8602
ltibia 8.12104
lfoot -13.9282 3.01394
ltoes -29.022
444
root 1.38179 17.766 19.3802 1.27253 175.645 0.175262
lowerback 5.39006 -3.67378 -7.64496
upperback -1.15405 -5.24622 4.00221
thorax -3.16524 -2.41673 8.91226
lowerneck -1.13466 -16.9085 -15.4268
upperneck 20.9878 -24.2928 16.0634
head 10.917 -10.8532 5.13858
rclavicle -1.82136e-014 2.70347e-014
rhumerus -28.6553 -9.24711 -80.4681
rradius 31.8692
rwrist -3.35503
rhand -7.40027 -35.9071
rfingers 7.12502
rthumb 18.4858 -65.0487
lclavicle -1.82136e-014 2.70347e-014
lhumerus -38.8958 28.3269 80.8845
lradius 31.7999
lwrist -4.66
lhand -12.4825 -16.2024
lfingers 7.12502
lthumb 13.592 13.3339
rfemur -4.48043 5.13055 18.4521
rtibia 18.6069
rfoot -15.3964 -2.79109
rtoes 12.0371
lfemur 4.35327 1.93674 -18.9949
ltibia 8.027
lfoot -13.8033 3.53425
ltoes -28.9568
445
root 1.36955 17.7647 19.3744 1.33296 174.765 0.133888
lowerback 5.51014 -3.63359 -7.65064
upperback -1.14795 -5.19579 4.07292
thorax -3.22982 -2.38643 9.00038
lowerneck -1.13058 -17.0474 -15.3042
upperneck 21.5968 -24.5006 15.9296
head 11.1475 -10.9031 5.04388
rclavicle -2.52457e-014 2.22639e-014
rhumerus -28.6617 -9.50303 -80.3067
rradius 32.0191
rwrist -3.63979
rhand -8.00435 -36.1425
rfingers 7.12502
rthumb 17.9046 -65.3383
lclavicle -2.52457e-014 2.22639e-014
lhumerus -39.9928 28.7473 80.229
lradius 31.4127
lwrist -4.97743
lhand -12.4887 -16.2116
lfingers 7.12502
lthumb 13.5861 13.3251
rfemur -4.73832 5.58879 18.3904
rtibia 18.8038
rfoot -15.4105 -2.39382
rtoes 12.2286
lfemur 4.46953 2.35119 -19.0959
ltibia 7.89326
lfoot -13.6733 4.06821
ltoes -28.7843
